<svg xmlns="http://www.w3.org/2000/svg" viewBox="0 0 32 32"><path fill="#FFFADD" d="M7,31c-3.31368,0 -6,-2.68632 -6,-6v-18c0,-3.31368 2.68632,-6 6,-6h18c3.31368,0 6,2.68632 6,6v18c0,3.31368 -2.68632,6 -6,6Z"/><path fill="#FAE780" fill-rule="evenodd" d="M11.282,16c0,-0.3399 0.2756,-0.6154 0.6154,-0.6154h3.2821c0.3398,0 0.6154,0.2755 0.6154,0.6154c0,0.3399 -0.2756,0.6154 -0.6154,0.6154h-3.2821c-0.3398,0 -0.6154,-0.2755 -0.6154,-0.6154Z"/><g fill="#FFD200" fill-rule="evenodd"><path d="M10.2564,13.7436c-1.24617,0 -2.2564,1.0102 -2.2564,2.2564c0,1.2462 1.01023,2.2564 2.2564,2.2564c1.2462,0 2.2564,-1.0102 2.2564,-2.2564c0,-1.2462 -1.0102,-2.2564 -2.2564,-2.2564Z"/><path fill="#FAE780" d="M18.4485,8.31649c0.1651,-0.29709 0.5398,-0.40412 0.8368,-0.23906c2.8081,1.56016 4.7147,4.45487 4.7147,7.78767c0,3.5505 -2.1627,6.6022 -5.2751,8.0757c-0.3072,0.1454 -0.6741,0.0143 -0.8196,-0.2929c-0.1454,-0.3072 -0.0143,-0.6741 0.2929,-0.8195c2.7267,-1.2909 4.571,-3.9355 4.571,-6.9633c0,-2.8432 -1.6255,-5.3472 -4.0816,-6.7118c-0.2971,-0.16506 -0.4041,-0.53971 -0.2391,-0.83681Z"/><path fill="#FAE780" d="M16.5446,10.0219c0.1295,-0.31419 0.4892,-0.46396 0.8034,-0.33448c2.4581,1.01288 4.1905,3.43168 4.1905,6.25658c0,2.9467 -1.8849,5.4516 -4.513,6.3798c-0.3205,0.1132 -0.6721,-0.0548 -0.7852,-0.3753c-0.1132,-0.3204 0.0548,-0.672 0.3753,-0.7852c2.1521,-0.7601 3.6921,-2.811 3.6921,-5.2193c0,-2.3087 -1.4151,-4.2889 -3.4286,-5.1186c-0.3142,-0.1295 -0.464,-0.4892 -0.3345,-0.8035Z"/><path fill="#FAE780" d="M14.5641,11.8974c0,-0.3398 0.2755,-0.6154 0.6154,-0.6154c2.2735,0 3.8974,2.2476 3.8974,4.718c0,2.4704 -1.6239,4.7179 -3.8974,4.7179c-0.3399,0 -0.6154,-0.2755 -0.6154,-0.6153c0,-0.3399 0.2755,-0.6154 0.6154,-0.6154c1.3517,0 2.6666,-1.4261 2.6666,-3.4872c0,-2.0612 -1.3149,-3.4872 -2.6666,-3.4872c-0.3399,0 -0.6154,-0.2755 -0.6154,-0.6154Z"/></g></svg>